<?xml version="1.0" encoding="utf-8"?><svg xmlns="http://www.w3.org/2000/svg" xmlns:xlink="http://www.w3.org/1999/xlink"><symbol viewBox="0 0 24 24" id="add" xmlns="http://www.w3.org/2000/svg"><path d="M19 13h-6v6h-2v-6H5v-2h6V5h2v6h6v2z"/><path d="M0 0h24v24H0z" fill="none"/></symbol><symbol viewBox="0 0 24 24" id="backup" xmlns="http://www.w3.org/2000/svg"><path d="M11.99 2C6.47 2 2 6.48 2 12s4.47 10 9.99 10C17.52 22 22 17.52 22 12S17.52 2 11.99 2zM12 20c-4.42 0-8-3.58-8-8s3.58-8 8-8 8 3.58 8 8-3.58 8-8 8z"/><path d="M0 0h24v24H0z" fill="none"/><path d="M12.5 7H11v6l5.25 3.15.75-1.23-4.5-2.67z"/></symbol><symbol viewBox="0 0 24 24" id="chat" xmlns="http://www.w3.org/2000/svg"><path d="M20 2H4c-1.1 0-2 .9-2 2v18l4-4h14c1.1 0 2-.9 2-2V4c0-1.1-.9-2-2-2z"/><path d="M0 0h24v24H0z" fill="none"/></symbol><symbol viewBox="0 0 24 24" id="checkmark" xmlns="http://www.w3.org/2000/svg"><path d="M0 0h24v24H0z" fill="none"/><path d="M9 16.17L4.83 12l-1.42 1.41L9 19 21 7l-1.41-1.41z"/></symbol><symbol viewBox="0 0 24 24" id="clone" xmlns="http://www.w3.org/2000/svg"><path d="M16 1H4c-1.1 0-2 .9-2 2v14h2V3h12V1zm3 4H8c-1.1 0-2 .9-2 2v14c0 1.1.9 2 2 2h11c1.1 0 2-.9 2-2V7c0-1.1-.9-2-2-2zm0 16H8V7h11v14z"/></symbol><symbol viewBox="0 0 24 24" id="close" xmlns="http://www.w3.org/2000/svg"><path d="M19 6.41L17.59 5 12 10.59 6.41 5 5 6.41 10.59 12 5 17.59 6.41 19 12 13.41 17.59 19 19 17.59 13.41 12z"/><path d="M0 0h24v24H0z" fill="none"/></symbol><symbol viewBox="0 0 24 24" id="collapse" xmlns="http://www.w3.org/2000/svg"><path d="M7.41 15.41L12 10.83l4.59 4.58L18 14l-6-6-6 6z"/><path d="M0 0h24v24H0z" fill="none"/></symbol><symbol viewBox="0 0 24 24" id="configure" xmlns="http://www.w3.org/2000/svg"><path d="M2 11h20v2H2z"/><circle cx="15.1" cy="12" r="1.9"/><path d="M2 17h20v2H2z"/><circle cx="6.1" cy="18" r="1.9"/><path d="M2 5h20v2H2z"/><circle cx="6.1" cy="6" r="1.9"/></symbol><symbol viewBox="0 0 24 24" id="dashboard" xmlns="http://www.w3.org/2000/svg"><path d="M0 0h24v24H0z" fill="none"/><path d="M3 13h8V3H3v10zm0 8h8v-6H3v6zm10 0h8V11h-8v10zm0-18v6h8V3h-8z"/></symbol><symbol viewBox="0 0 24 24" id="delete" xmlns="http://www.w3.org/2000/svg"><path d="M6 19c0 1.1.9 2 2 2h8c1.1 0 2-.9 2-2V7H6v12zM19 4h-3.5l-1-1h-5l-1 1H5v2h14V4z"/><path d="M0 0h24v24H0z" fill="none"/></symbol><symbol viewBox="0 0 32 32" id="doc-type-csv" xmlns="http://www.w3.org/2000/svg"><path d="M26 0H6C4.133 0 2.667 1.867 2.667 4v24c0 2.133 1.467 4 3.333 4h20c1.867 0 3.333-1.867 3.333-4V4c0-2.133-1.467-4-3.333-4z"/><path fill="#fff" stroke="#fff" stroke-width=".667" stroke-miterlimit="10" d="M11.2 18c0 1.067-.267 1.867-.8 2.4s-1.2.8-2.133.8S6.534 20.8 6 20.133s-.667-1.6-.667-2.933v-1.467c0-1.2.267-2.267.8-2.933s1.2-1.067 2.267-1.067c.933 0 1.6.267 2.133.8s.8 1.333.8 2.4H9.466c0-.667-.133-1.067-.267-1.333-.133-.133-.533-.267-.933-.267s-.8.133-.933.533-.267.933-.267 1.733v1.733c0 .933.133 1.467.267 1.867s.533.533.933.533.8-.133.933-.4.267-.667.267-1.333h1.733z"/><path fill="#fff" stroke="#fff" stroke-width=".333" stroke-miterlimit="10" d="M17.467 18.8c0-.4-.133-.533-.267-.8-.267-.133-.533-.4-1.067-.533-.533-.267-.933-.4-1.2-.533-1.067-.667-1.6-1.467-1.6-2.533 0-.533.133-.933.4-1.467.267-.4.667-.667 1.067-.933.533-.267 1.067-.4 1.6-.4s1.067.133 1.6.4c.4.267.8.533 1.067 1.067.267.4.4.933.4 1.6h-2c0-.4-.133-.667-.267-.933-.267-.267-.533-.267-.8-.267-.4 0-.667.133-.8.267-.267.133-.267.4-.267.667s.133.533.267.667c.267.133.667.4 1.2.667s1.067.4 1.333.667c.933.533 1.333 1.467 1.333 2.4 0 .8-.267 1.467-.8 2s-1.2.667-2.133.667c-.667 0-1.2-.133-1.733-.4s-.933-.667-1.2-1.2a3.686 3.686 0 0 1-.4-1.733h2c0 .533.133.933.4 1.067s.533.4 1.067.4c.267 0 .533-.133.8-.267v-.533zm6.4-1.2l1.467-5.867h2L24.801 21.2h-1.867l-2.533-9.467h2l1.467 5.867z"/></symbol><symbol viewBox="0 0 24 24" id="doc-type-file" xmlns="http://www.w3.org/2000/svg"><path d="M19.5 0h-15C3.1 0 2 1.4 2 3v18c0 1.6 1.1 3 2.5 3h15c1.4 0 2.5-1.4 2.5-3V3c0-1.6-1.1-3-2.5-3z"/><path fill="#fff" stroke="#fff" stroke-width=".5" stroke-miterlimit="10" d="M20.4 13.5c0 .8-.2 1.4-.6 1.8s-.9.6-1.6.6c-.7 0-1.3-.3-1.7-.8s-.6-1.2-.6-2.2v-1.1c0-.9.2-1.7.6-2.2s.9-.8 1.7-.8c.7 0 1.2.2 1.6.6s.6 1 .6 1.8h-1.3c0-.5-.1-.8-.2-1s-.4-.3-.7-.3c-.3 0-.6.1-.7.4s-.2.7-.2 1.3V13c0 .7.1 1.1.2 1.4s.4.4.7.4c.3 0 .6-.1.7-.3s.2-.5.2-1h1.3z"/><path fill="#fff" d="M8.9 14.1c0 1-.9 1.9-1.9 1.9H3.9V8.6H7c1 0 1.9.9 1.9 1.9v3.6zm-3.1 0H7v-3.7H5.8v3.7zm9.1-1.1c0 1-.2 1.7-.7 2.3-.4.5-1.1.8-1.9.8s-1.4-.3-1.9-.8c-.3-.6-.5-1.3-.5-2.3v-1.2c0-1 .2-1.8.7-2.3.4-.6 1.1-.8 1.9-.8s1.4.3 1.8.8c.4.5.7 1.3.7 2.3l-.1 1.2zm-3.1 1.1H13v-3.7h-1.2v3.7z"/></symbol><symbol viewBox="0 0 24 24" id="doc-type-pdf" xmlns="http://www.w3.org/2000/svg"><path d="M19.5 0h-15C3.1 0 2 1.4 2 3v18c0 1.6 1.1 3 2.5 3h15c1.4 0 2.5-1.4 2.5-3V3c0-1.6-1.1-3-2.5-3z"/><path fill="#fff" d="M20.1 10.5h-1.9v1.2h1.9v1.9h-1.9v2.5h-1.9V8.7h3.8zM8.9 11.8c0 1-.9 1.9-1.9 1.9H5.8v2.4H3.9V8.7H7c1 0 1.9.9 1.9 1.9v1.2zm-3.1 0H7v-1.2H5.8v1.2zm9.3 2.4c0 1-.9 1.9-1.9 1.9h-3.1V8.7h3.1c1 0 1.9.9 1.9 1.9v3.6zm-3.1 0h1.2v-3.7H12v3.7z"/></symbol><symbol viewBox="0 0 24 24" id="doc-type-ppt" xmlns="http://www.w3.org/2000/svg"><path d="M19.5 0h-15C3.1 0 2 1.4 2 3v18c0 1.6 1.1 3 2.5 3h15c1.4 0 2.5-1.4 2.5-3V3c0-1.6-1.1-3-2.5-3z"/><path fill="#fff" d="M8.9 11.8c0 1-.9 1.9-1.9 1.9H5.8v2.4H3.9V8.7H7c1 0 1.9.9 1.9 1.9v1.2zm-3.1 0H7v-1.2H5.8v1.2zm8.7 0c0 1-.9 1.9-1.9 1.9h-1.2v2.4H9.5V8.7h3.1c1 0 1.9.9 1.9 1.9v1.2zm-3.1 0h1.2v-1.2h-1.2v1.2zm8.9-1.3h-1.5v5.6h-1.9v-5.6h-1.7V8.6h5.2v1.9z"/></symbol><symbol viewBox="0 0 24 24" id="doc-type-xls" xmlns="http://www.w3.org/2000/svg"><path d="M19.5 0h-15C3.1 0 2 1.4 2 3v18c0 1.6 1.1 3 2.5 3h15c1.4 0 2.5-1.4 2.5-3V3c0-1.6-1.1-3-2.5-3z"/><path fill="#fff" stroke="#fff" stroke-width=".25" stroke-miterlimit="10" d="M6.4 11.2l1-2.4h1.7l-1.8 3.6L9.2 16H7.5l-1.1-2.5L5.3 16H3.6l1.8-3.7-1.8-3.5h1.7l1.1 2.4z"/><path fill="#fff" d="M12.3 14.2h2.4v1.9h-4.3V8.7h1.9v5.5z"/><path fill="#fff" stroke="#fff" stroke-width=".25" stroke-miterlimit="10" d="M19.1 14.1c0-.3-.1-.4-.2-.6-.2-.1-.4-.3-.8-.4-.4-.2-.7-.3-.9-.4-.8-.5-1.2-1.1-1.2-1.9 0-.4.1-.7.3-1.1.2-.3.5-.5.8-.7.4-.2.8-.3 1.2-.3s.8.1 1.2.3c.3.2.6.4.8.8.2.3.3.7.3 1.2h-1.5c0-.3-.1-.5-.2-.7-.2-.2-.4-.2-.6-.2-.3 0-.5.1-.6.2-.2.1-.2.3-.2.5s.1.4.2.5c.2.1.5.3.9.5s.8.3 1 .5c.7.4 1 1.1 1 1.8 0 .6-.2 1.1-.6 1.5s-.9.5-1.6.5c-.5 0-.9-.1-1.3-.3s-.7-.5-.9-.9c-.2-.4-.3-.8-.3-1.3h1.5c0 .4.1.7.3.8.2.2.4.3.8.3.2 0 .4-.1.6-.2v-.4z"/></symbol><symbol viewBox="89.5 0 510 612" id="doc-type-xml" xmlns="http://www.w3.org/2000/svg"><path d="M536.25 0h-382.5C115.5 5.1 87.45 38.25 90 76.5v459c-2.55 38.25 25.5 71.4 63.75 76.5h382.5c38.25-5.1 66.3-38.25 63.75-76.5v-459c2.55-38.25-25.5-71.4-63.75-76.5z"/><title>ic_file_xml_black_24px</title><path fill="#FFF" d="M287.9 224.4h39.7l38.25 73.95 35.7-73.95h38.7V408H404.1V290.7l-40.8 76.5-40.8-76.5V408h-34.6V224.4zM192 285.6l25.5-61.2h50.35l-45.9 91.8L270.4 408h-50.35L192 344.25 163.95 408H115.6l45.9-94.35-45.9-89.25h48.35L192 285.6zm318.75 76.5h63.75v48.45H465.85v-188.7h47.45l-2.55 140.25z"/></symbol><symbol viewBox="0 0 24 24" id="download" xmlns="http://www.w3.org/2000/svg"><path d="M19 9h-4V3H9v6H5l7 7 7-7zM5 18v2h14v-2H5z"/><path d="M0 0h24v24H0z" fill="none"/></symbol><symbol viewBox="0 0 24 24" id="drag" xmlns="http://www.w3.org/2000/svg"><path fill="none" d="M0 0h24v24H0V0z"/><path d="M11 18c0 1.1-.9 2-2 2s-2-.9-2-2 .9-2 2-2 2 .9 2 2zm-2-8c-1.1 0-2 .9-2 2s.9 2 2 2 2-.9 2-2-.9-2-2-2zm0-6c-1.1 0-2 .9-2 2s.9 2 2 2 2-.9 2-2-.9-2-2-2zm6 4c1.1 0 2-.9 2-2s-.9-2-2-2-2 .9-2 2 .9 2 2 2zm0 2c-1.1 0-2 .9-2 2s.9 2 2 2 2-.9 2-2-.9-2-2-2zm0 6c-1.1 0-2 .9-2 2s.9 2 2 2 2-.9 2-2-.9-2-2-2z"/></symbol><symbol viewBox="0 0 24 24" id="edit" xmlns="http://www.w3.org/2000/svg"><path d="M3 17.25V21h3.75L17.81 9.94l-3.75-3.75L3 17.25zM20.71 7.04a.996.996 0 0 0 0-1.41l-2.34-2.34a.996.996 0 0 0-1.41 0l-1.83 1.83 3.75 3.75 1.83-1.83z"/><path d="M0 0h24v24H0z" fill="none"/></symbol><symbol viewBox="0 0 24 24" id="error" xmlns="http://www.w3.org/2000/svg"><path d="M12 2C6.47 2 2 6.47 2 12s4.47 10 10 10 10-4.47 10-10S17.53 2 12 2zm5 13.59L15.59 17 12 13.41 8.41 17 7 15.59 10.59 12 7 8.41 8.41 7 12 10.59 15.59 7 17 8.41 13.41 12 17 15.59z"/><path d="M0 0h24v24H0z" fill="none"/></symbol><symbol viewBox="0 0 24 24" id="expand" xmlns="http://www.w3.org/2000/svg"><path d="M7.41 8.59L12 13.17l4.59-4.58L18 10l-6 6-6-6 1.41-1.41z"/><path fill="none" d="M0 0h24v24H0V0z"/></symbol><symbol viewBox="0 0 24 24" id="favorite" xmlns="http://www.w3.org/2000/svg"><path d="M0 0h24v24H0z" fill="none"/><path d="M12 17.27L18.18 21l-1.64-7.03L22 9.24l-7.19-.61L12 2 9.19 8.63 2 9.24l5.46 4.73L5.82 21z"/><path d="M0 0h24v24H0z" fill="none"/></symbol><symbol viewBox="0 0 24 24" id="filter" xmlns="http://www.w3.org/2000/svg"><path d="M10 18h4v-2h-4v2zM3 6v2h18V6H3zm3 7h12v-2H6v2z"/><path d="M0 0h24v24H0z" fill="none"/></symbol><symbol viewBox="0 0 24 24" id="flash" xmlns="http://www.w3.org/2000/svg"><path d="M0 0h24v24H0z" fill="none"/><path d="M7 2v11h3v9l7-12h-4l4-8z"/></symbol><symbol viewBox="0 0 24 24" id="healing" xmlns="http://www.w3.org/2000/svg"><path d="M17.7 12l4-4c.4-.4.4-1 0-1.4l-4.3-4.3c-.4-.4-1-.4-1.4 0l-4 4-4-4c-.2-.2-.4-.3-.7-.3-.3 0-.5.1-.7.3L2.2 6.6c-.3.4-.3 1.1 0 1.4l4 4-4 4c-.4.4-.4 1 0 1.4l4.3 4.3c.4.4 1 .4 1.4 0l4-4 4 4c.2.2.5.3.7.3.3 0 .5-.1.7-.3l4.3-4.3c.4-.4.4-1 0-1.4.1 0-3.9-4-3.9-4zM12 9c.6 0 1 .4 1 1s-.4 1-1 1-1-.4-1-1 .4-1 1-1zm-4.7 2L3.7 7.3l3.6-3.6 3.6 3.6L7.3 11zm2.7 2c-.6 0-1-.4-1-1s.4-1 1-1 1 .4 1 1-.4 1-1 1zm2 2c-.6 0-1-.4-1-1s.4-1 1-1 1 .4 1 1-.4 1-1 1zm2-4c.6 0 1 .4 1 1s-.4 1-1 1-1-.4-1-1 .4-1 1-1zm2.7 9.3L13 16.7l3.6-3.6 3.6 3.6-3.5 3.6z"/></symbol><symbol viewBox="0 0 24 24" id="health" xmlns="http://www.w3.org/2000/svg"><path d="M0 0h24v24H0z" fill="none"/><path d="M12 21.35l-1.45-1.32C5.4 15.36 2 12.28 2 8.5 2 5.42 4.42 3 7.5 3c1.74 0 3.41.81 4.5 2.09C13.09 3.81 14.76 3 16.5 3 19.58 3 22 5.42 22 8.5c0 3.78-3.4 6.86-8.55 11.54L12 21.35z"/></symbol><symbol viewBox="0 0 24 24" id="help" xmlns="http://www.w3.org/2000/svg"><path d="M0 0h24v24H0z" fill="none"/><path d="M12 2C6.48 2 2 6.48 2 12s4.48 10 10 10 10-4.48 10-10S17.52 2 12 2zm1 17h-2v-2h2v2zm2.07-7.75l-.9.92C13.45 12.9 13 13.5 13 15h-2v-.5c0-1.1.45-2.1 1.17-2.83l1.24-1.26c.37-.36.59-.86.59-1.41 0-1.1-.9-2-2-2s-2 .9-2 2H8c0-2.21 1.79-4 4-4s4 1.79 4 4c0 .88-.36 1.68-.93 2.25z"/></symbol><symbol viewBox="0 0 24 24" id="image" xmlns="http://www.w3.org/2000/svg"><path d="M0 0h24v24H0z" fill="none"/><path d="M21 19V5c0-1.1-.9-2-2-2H5c-1.1 0-2 .9-2 2v14c0 1.1.9 2 2 2h14c1.1 0 2-.9 2-2zM8.5 13.5l2.5 3.01L14.5 12l4.5 6H5l3.5-4.5z"/></symbol><symbol viewBox="0 0 24 24" id="info" xmlns="http://www.w3.org/2000/svg"><path d="M0 0h24v24H0z" fill="none"/><path d="M12 2C6.48 2 2 6.48 2 12s4.48 10 10 10 10-4.48 10-10S17.52 2 12 2zm1 15h-2v-6h2v6zm0-8h-2V7h2v2z"/></symbol><symbol viewBox="0 0 24 24" id="lock" xmlns="http://www.w3.org/2000/svg"><path d="M0 0h24v24H0z" fill="none"/><path d="M18 8h-1V6c0-2.76-2.24-5-5-5S7 3.24 7 6v2H6c-1.1 0-2 .9-2 2v10c0 1.1.9 2 2 2h12c1.1 0 2-.9 2-2V10c0-1.1-.9-2-2-2zm-6 9c-1.1 0-2-.9-2-2s.9-2 2-2 2 .9 2 2-.9 2-2 2zm3.1-9H8.9V6c0-1.71 1.39-3.1 3.1-3.1 1.71 0 3.1 1.39 3.1 3.1v2z"/></symbol><symbol viewBox="0 0 24 24" id="lock-open" xmlns="http://www.w3.org/2000/svg"><path d="M0 0h24v24H0z" fill="none"/><path d="M12 17c1.1 0 2-.9 2-2s-.9-2-2-2-2 .9-2 2 .9 2 2 2zm6-9h-1V6c0-2.76-2.24-5-5-5S7 3.24 7 6h1.9c0-1.71 1.39-3.1 3.1-3.1 1.71 0 3.1 1.39 3.1 3.1v2H6c-1.1 0-2 .9-2 2v10c0 1.1.9 2 2 2h12c1.1 0 2-.9 2-2V10c0-1.1-.9-2-2-2zm0 12H6V10h12v10z"/></symbol><symbol viewBox="0 0 24 24" id="manage" xmlns="http://www.w3.org/2000/svg"><path clip-rule="evenodd" fill="none" d="M0 0h24v24H0z"/><path d="M22.7 19l-9.1-9.1c.9-2.3.4-5-1.5-6.9-2-2-5-2.4-7.4-1.3L9 6 6 9 1.6 4.7C.4 7.1.9 10.1 2.9 12.1c1.9 1.9 4.6 2.4 6.9 1.5l9.1 9.1c.4.4 1 .4 1.4 0l2.3-2.3c.5-.4.5-1.1.1-1.4z"/></symbol><symbol viewBox="0 0 24 24" id="menu" xmlns="http://www.w3.org/2000/svg"><path d="M0 0h24v24H0z" fill="none"/><path d="M3 18h18v-2H3v2zm0-5h18v-2H3v2zm0-7v2h18V6H3z"/></symbol><symbol viewBox="0 0 24 24" id="messages" xmlns="http://www.w3.org/2000/svg"><path d="M20 4H4c-1.1 0-1.99.9-1.99 2L2 18c0 1.1.9 2 2 2h16c1.1 0 2-.9 2-2V6c0-1.1-.9-2-2-2zm0 4l-8 5-8-5V6l8 5 8-5v2z"/><path d="M0 0h24v24H0z" fill="none"/></symbol><symbol viewBox="0 0 24 24" id="mirror" xmlns="http://www.w3.org/2000/svg"><path d="M16 1H4c-1.1 0-2 .9-2 2v14h2V3h12V1zm3 4H8c-1.1 0-2 .9-2 2v14c0 1.1.9 2 2 2h11c1.1 0 2-.9 2-2V7c0-1.1-.9-2-2-2zm0 16H8V7h11v14z"/><path stroke="#000" stroke-width="2" stroke-miterlimit="10" d="M10 13.2L14.2 9m-1.4 5.6l2.8-2.8"/></symbol><symbol viewBox="0 0 24 24" id="monitor" xmlns="http://www.w3.org/2000/svg"><path d="M0 0h24v24H0z" fill="none"/><path d="M12 4.5C7 4.5 2.73 7.61 1 12c1.73 4.39 6 7.5 11 7.5s9.27-3.11 11-7.5c-1.73-4.39-6-7.5-11-7.5zM12 17c-2.76 0-5-2.24-5-5s2.24-5 5-5 5 2.24 5 5-2.24 5-5 5zm0-8c-1.66 0-3 1.34-3 3s1.34 3 3 3 3-1.34 3-3-1.34-3-3-3z"/></symbol><symbol viewBox="0 0 24 24" id="more" xmlns="http://www.w3.org/2000/svg"><path d="M12 8c1.1 0 2-.9 2-2s-.9-2-2-2-2 .9-2 2 .9 2 2 2zm0 2c-1.1 0-2 .9-2 2s.9 2 2 2 2-.9 2-2-.9-2-2-2zm0 6c-1.1 0-2 .9-2 2s.9 2 2 2 2-.9 2-2-.9-2-2-2z"/></symbol><symbol viewBox="0 0 24 24" id="more-horizontal" xmlns="http://www.w3.org/2000/svg"><path d="M0 0h24v24H0z" fill="none"/><path d="M6 10c-1.1 0-2 .9-2 2s.9 2 2 2 2-.9 2-2-.9-2-2-2zm12 0c-1.1 0-2 .9-2 2s.9 2 2 2 2-.9 2-2-.9-2-2-2zm-6 0c-1.1 0-2 .9-2 2s.9 2 2 2 2-.9 2-2-.9-2-2-2z"/></symbol><symbol viewBox="0 0 24 24" id="navigate-back" xmlns="http://www.w3.org/2000/svg"><path d="M0 0h24v24H0z" fill="none"/><path d="M20 11H7.83l5.59-5.59L12 4l-8 8 8 8 1.41-1.41L7.83 13H20v-2z"/></symbol><symbol viewBox="0 0 24 24" id="navigate-down" xmlns="http://www.w3.org/2000/svg"><path fill="none" d="M0 0h24v24H0V0z"/><path d="M20 12l-1.41-1.41L13 16.17V4h-2v12.17l-5.58-5.59L4 12l8 8 8-8z"/></symbol><symbol viewBox="0 0 24 24" id="navigate-forward" xmlns="http://www.w3.org/2000/svg"><path d="M0 0h24v24H0z" fill="none"/><path d="M12 4l-1.41 1.41L16.17 11H4v2h12.17l-5.58 5.59L12 20l8-8z"/></symbol><symbol viewBox="0 0 24 24" id="navigate-up" xmlns="http://www.w3.org/2000/svg"><path fill="none" d="M0 0h24v24H0V0z"/><path d="M4 12l1.41 1.41L11 7.83V20h2V7.83l5.58 5.59L20 12l-8-8-8 8z"/></symbol><symbol viewBox="0 0 24 24" id="performance" xmlns="http://www.w3.org/2000/svg"><path d="M3.5 18.49l6-6.01 4 4L22 6.92l-1.41-1.41-7.09 7.97-4-4L2 16.99z"/><path fill="none" d="M0 0h24v24H0z"/></symbol><symbol viewBox="0 0 24 24" id="print"><path d="M19 8H5c-1.7 0-3 1.3-3 3v6h4v4h12v-4h4v-6c0-1.7-1.3-3-3-3zm-3 11H8v-5h8v5zm3-7c-.5 0-1-.4-1-1s.5-1 1-1 1 .4 1 1-.5 1-1 1zm-1-9H6v4h12V3z"/></symbol><symbol viewBox="0 0 24 24" id="protect" xmlns="http://www.w3.org/2000/svg"><path d="M12 1L3 5v6c0 5.55 3.84 10.74 9 12 5.16-1.26 9-6.45 9-12V5l-9-4zm0 10.99h7c-.53 4.12-3.28 7.79-7 8.94V12H5V6.3l7-3.11v8.8z"/><path d="M0 0h24v24H0z" fill="none"/></symbol><symbol viewBox="0 0 24 24" id="remove" xmlns="http://www.w3.org/2000/svg"><path d="M19 13H5v-2h14v2z"/><path d="M0 0h24v24H0z" fill="none"/></symbol><symbol viewBox="0 0 24 24" id="reports" xmlns="http://www.w3.org/2000/svg"><path d="M19 3H5c-1.1 0-2 .9-2 2v14c0 1.1.9 2 2 2h14c1.1 0 2-.9 2-2V5c0-1.1-.9-2-2-2zM9 17H7v-7h2v7zm4 0h-2V7h2v10zm4 0h-2v-4h2v4z"/><path d="M0 0h24v24H0z" fill="none"/></symbol><symbol viewBox="0 0 24 24" id="restore" xmlns="http://www.w3.org/2000/svg"><path d="M14 2H6c-1.1 0-1.99.9-1.99 2L4 20c0 1.1.89 2 1.99 2H18c1.1 0 2-.9 2-2V8l-6-6zm-2 16c-2.05 0-3.81-1.24-4.58-3h1.71c.63.9 1.68 1.5 2.87 1.5 1.93 0 3.5-1.57 3.5-3.5S13.93 9.5 12 9.5a3.5 3.5 0 0 0-3.1 1.9l1.6 1.6h-4V9l1.3 1.3C8.69 8.92 10.23 8 12 8c2.76 0 5 2.24 5 5s-2.24 5-5 5z"/><path fill="none" d="M0 0h24v24H0z"/></symbol><symbol viewBox="0 0 24 24" id="save" xmlns="http://www.w3.org/2000/svg"><path d="M0 0h24v24H0z" fill="none"/><path d="M17 3H5a2 2 0 0 0-2 2v14a2 2 0 0 0 2 2h14c1.1 0 2-.9 2-2V7l-4-4zm-5 16c-1.66 0-3-1.34-3-3s1.34-3 3-3 3 1.34 3 3-1.34 3-3 3zm3-10H5V5h10v4z"/></symbol><symbol viewBox="0 0 24 24" id="search" xmlns="http://www.w3.org/2000/svg"><path d="M15.5 14h-.79l-.28-.27A6.471 6.471 0 0 0 16 9.5 6.5 6.5 0 1 0 9.5 16c1.61 0 3.09-.59 4.23-1.57l.27.28v.79l5 4.99L20.49 19l-4.99-5zm-6 0C7.01 14 5 11.99 5 9.5S7.01 5 9.5 5 14 7.01 14 9.5 11.99 14 9.5 14z"/><path d="M0 0h24v24H0z" fill="none"/></symbol><symbol viewBox="0 0 24 24" id="send" xmlns="http://www.w3.org/2000/svg"><path d="M2.01 21L23 12 2.01 3 2 10l15 2-15 2z"/><path d="M0 0h24v24H0z" fill="none"/></symbol><symbol viewBox="0 0 20 20" id="settings" xmlns="http://www.w3.org/2000/svg"><path fill="none" d="M0 0h20v20H0V0z"/><path d="M15.95 10.78c.03-.25.05-.51.05-.78s-.02-.53-.06-.78l1.69-1.32c.15-.12.19-.34.1-.51l-1.6-2.77c-.1-.18-.31-.24-.49-.18l-1.99.8c-.42-.32-.86-.58-1.35-.78L12 2.34a.4.4 0 0 0-.4-.34H8.4c-.2 0-.36.14-.39.34l-.3 2.12c-.49.2-.94.47-1.35.78l-1.99-.8c-.18-.07-.39 0-.49.18l-1.6 2.77c-.1.18-.06.39.1.51l1.69 1.32c-.04.25-.07.52-.07.78s.02.53.06.78L2.37 12.1c-.15.12-.19.34-.1.51l1.6 2.77c.1.18.31.24.49.18l1.99-.8c.42.32.86.58 1.35.78l.3 2.12c.04.2.2.34.4.34h3.2c.2 0 .37-.14.39-.34l.3-2.12c.49-.2.94-.47 1.35-.78l1.99.8c.18.07.39 0 .49-.18l1.6-2.77c.1-.18.06-.39-.1-.51l-1.67-1.32zM10 13c-1.65 0-3-1.35-3-3s1.35-3 3-3 3 1.35 3 3-1.35 3-3 3z"/></symbol><symbol viewBox="0 0 24 24" id="sort" xmlns="http://www.w3.org/2000/svg"><path d="M7 13l5 5 5-5H7zm10-3l-5-5-5 5h10z"/></symbol><symbol viewBox="0 0 24 24" id="success" xmlns="http://www.w3.org/2000/svg"><path d="M0 0h24v24H0z" fill="none"/><path d="M12 2C6.48 2 2 6.48 2 12s4.48 10 10 10 10-4.48 10-10S17.52 2 12 2zm-2 15l-5-5 1.41-1.41L10 14.17l7.59-7.59L19 8l-9 9z"/></symbol><symbol viewBox="0 0 24 24" id="user-profile" xmlns="http://www.w3.org/2000/svg"><path d="M12 12c2.21 0 4-1.79 4-4s-1.79-4-4-4-4 1.79-4 4 1.79 4 4 4zm0 2c-2.67 0-8 1.34-8 4v2h16v-2c0-2.66-5.33-4-8-4z"/><path d="M0 0h24v24H0z" fill="none"/></symbol><symbol viewBox="0 0 24 24" id="violation" xmlns="http://www.w3.org/2000/svg"><path d="M0 0h24v24H0z" fill="none"/><path d="M12 2C6.48 2 2 6.48 2 12s4.48 10 10 10 10-4.48 10-10S17.52 2 12 2zm1 15h-2v-2h2v2zm0-4h-2V7h2v6z"/></symbol><symbol viewBox="0 0 24 24" id="warning" xmlns="http://www.w3.org/2000/svg"><path d="M0 0h24v24H0z" fill="none"/><path d="M1 21h22L12 2 1 21zm12-3h-2v-2h2v2zm0-4h-2v-4h2v4z"/></symbol></svg>